<svg xmlns="http://www.w3.org/2000/svg" data-name="Layer 1" width="847.6197" height="386.288" viewBox="0 0 847.6197 386.288" xmlns:xlink="http://www.w3.org/1999/xlink">

                <!--left leg-->
                <path d="M598.87633,612.16592a87.33929,87.33929,0,0,0,44.47022,13.94,20.84973,20.84973,0,0,1-.9502,1.96,25.06735,25.06735,0,0,1-7.60009,8.55,24.96917,24.96917,0,0,1-39.33985-20.42v-4.03Z" transform="translate(-176.19015 -256.856)" fill="#3f3d56"/>
                
                <!--right leg-->
                <path d="M692.14635,613.34591v2.85a24.96061,24.96061,0,0,1-46.87988,11.95,20.84826,20.84826,0,0,1-.99023-2.01c.73.02,1.45019.03,2.18017.03A87.46657,87.46657,0,0,0,692.14635,613.34591Z" transform="translate(-176.19015 -256.856)" fill="#3f3d56"/>
            
                <g class = "spin">
                    <!--right ear-->
                    <path class = "head" d="M725.78649,311.9659c-.75-.11-1.51025-.18-2.27-.23a83.981,83.981,0,0,1,1.66992,62.71c.76026-.09,1.51026-.21,2.26026-.35a31.50228,31.50228,0,0,0-1.66016-62.13Z" transform="translate(-176.19015 -256.856)" fill="#3f3d56"/>
                    
                    <!--left ear-->
                    <path class = "head" d="M569.39635,311.73592c-.75976.05-1.52.12-2.27.23a31.50227,31.50227,0,0,0-1.66015,62.13c.75.14,1.5.26,2.26025.35a83.981,83.981,0,0,1,1.66992-62.71Z" transform="translate(-176.19015 -256.856)" fill="#3f3d56"/>
                    
                    <!--head-->
                    <path class = "head" d="M725.78649,311.9659a85.99677,85.99677,0,1,0,6.66992,33.2A86.1148,86.1148,0,0,0,725.78649,311.9659Zm-.6001,62.48a83.981,83.981,0,1,1,5.27-29.28A84.122,84.122,0,0,1,725.18639,374.44594Z" transform="translate(-176.19015 -256.856)" fill="#3f3d56"/>
                    
                    <!--eyes-->
                    <path class = "head" d="M690.45641,325.66592h-88a17.5,17.5,0,0,0,0,35h88a17.5,17.5,0,0,0,0-35Z" transform="translate(-176.19015 -256.856)" fill="#3f3d56"/>

                </g>
                <!--body-->
                <path d="M646.45641,448.16592a89.99675,89.99675,0,0,0-4.06006,179.9c.9502.05,1.91016.08,2.87012.08.3999.02.79.02,1.18994.02a90,90,0,0,0,0-180Zm45.68994,165.18a87.46657,87.46657,0,0,1-45.68994,12.82c-.73,0-1.45019-.01-2.18017-.03q-.46509,0-.92969-.03a88.0512,88.0512,0,1,1,48.7998-12.76Z" transform="translate(-176.19015 -256.856)" fill="#3f3d56"/>
            
                <!--belly button-->
                <path d="M709.62316,515.99941h-39.3335a10.3335,10.3335,0,0,1,0-20.667h39.3335a10.3335,10.3335,0,0,1,0,20.667Z" transform="translate(-176.19015 -256.856)" fill="#3f3d56"/>
            </svg>